<svg id="Layer_1" enable-background="new 0 0 510.792 510.792" height="512" viewBox="0 0 510.792 510.792" width="512" xmlns="http://www.w3.org/2000/svg"><g><g><path d="m107.734 274.567 135.394 229.948c4.909 8.337 16.953 8.379 21.919.076l137.323-229.59c18.135-30.319 27.711-64.987 27.711-100.315.001-96.477-78.208-174.686-174.685-174.686-96.476 0-174.685 78.209-174.685 174.686v.725c0 34.871 9.33 69.107 27.023 99.156z" fill="#ff0125"/><path d="m255.396 0c-.624 0-1.244.017-1.866.023v510.734c4.42.198 8.928-1.841 11.516-6.168l137.324-229.588c18.135-30.319 27.712-64.987 27.712-100.316 0-96.476-78.21-174.685-174.686-174.685z" fill="#be2342"/></g><path d="m325.512 201.451h-.005c43.256-51.853-27.123-112.59-71.985-67.905-48.895-46.438-113.737 20.189-71.985 67.905.717.749 43.967 45.957 63.08 65.934 4.858 5.078 12.951 5.078 17.809.001 18.933-19.787 61.453-64.227 63.086-65.935z" fill="#fff"/><path d="m253.531 271.011c3.235-.002 6.47-1.271 8.897-3.807 18.932-19.787 61.451-64.228 63.085-65.935h-.005c43.253-51.85-27.115-112.583-71.977-67.912z" fill="#fff5f5"/></g></svg>